# Tiled2Unity generated file. Do not modify by hand.
# Wavefront file for '101_mesh_0004.obj'

# Vertices (Count = 416)
v -0.8 -8.96 0
v -0.96 -8.96 0
v -0.96 -8.8 0
v -0.8 -8.8 0
v -0.96 -8.96 0
v -1.12 -8.96 0
v -1.12 -8.8 0
v -0.96 -8.8 0
v -1.12 -8.96 0
v -1.28 -8.96 0
v -1.28 -8.8 0
v -1.12 -8.8 0
v -1.28 -8.96 0
v -1.44 -8.96 0
v -1.44 -8.8 0
v -1.28 -8.8 0
v -1.44 -8.96 0
v -1.6 -8.96 0
v -1.6 -8.8 0
v -1.44 -8.8 0
v -1.6 -8.96 0
v -1.76 -8.96 0
v -1.76 -8.8 0
v -1.6 -8.8 0
v -1.76 -8.96 0
v -1.92 -8.96 0
v -1.92 -8.8 0
v -1.76 -8.8 0
v -1.92 -8.96 0
v -2.08 -8.96 0
v -2.08 -8.8 0
v -1.92 -8.8 0
v -2.08 -8.96 0
v -2.24 -8.96 0
v -2.24 -8.8 0
v -2.08 -8.8 0
v -2.24 -8.96 0
v -2.4 -8.96 0
v -2.4 -8.8 0
v -2.24 -8.8 0
v -2.4 -8.96 0
v -2.56 -8.96 0
v -2.56 -8.8 0
v -2.4 -8.8 0
v -2.56 -8.96 0
v -2.72 -8.96 0
v -2.72 -8.8 0
v -2.56 -8.8 0
v -2.72 -8.96 0
v -2.88 -8.96 0
v -2.88 -8.8 0
v -2.72 -8.8 0
v -2.88 -8.96 0
v -3.04 -8.96 0
v -3.04 -8.8 0
v -2.88 -8.8 0
v -3.04 -8.96 0
v -3.2 -8.96 0
v -3.2 -8.8 0
v -3.04 -8.8 0
v -3.2 -8.96 0
v -3.36 -8.96 0
v -3.36 -8.8 0
v -3.2 -8.8 0
v -3.36 -8.96 0
v -3.52 -8.96 0
v -3.52 -8.8 0
v -3.36 -8.8 0
v -3.52 -8.96 0
v -3.68 -8.96 0
v -3.68 -8.8 0
v -3.52 -8.8 0
v -3.68 -8.96 0
v -3.84 -8.96 0
v -3.84 -8.8 0
v -3.68 -8.8 0
v -3.84 -8.96 0
v -4 -8.96 0
v -4 -8.8 0
v -3.84 -8.8 0
v -4 -8.96 0
v -4.16 -8.96 0
v -4.16 -8.8 0
v -4 -8.8 0
v -4.16 -8.96 0
v -4.32 -8.96 0
v -4.32 -8.8 0
v -4.16 -8.8 0
v -6.56 -8.96 0
v -6.72 -8.96 0
v -6.72 -8.8 0
v -6.56 -8.8 0
v -6.72 -8.96 0
v -6.88 -8.96 0
v -6.88 -8.8 0
v -6.72 -8.8 0
v -6.88 -8.96 0
v -7.04 -8.96 0
v -7.04 -8.8 0
v -6.88 -8.8 0
v -7.04 -8.96 0
v -7.2 -8.96 0
v -7.2 -8.8 0
v -7.04 -8.8 0
v -7.2 -8.96 0
v -7.36 -8.96 0
v -7.36 -8.8 0
v -7.2 -8.8 0
v -7.36 -8.96 0
v -7.52 -8.96 0
v -7.52 -8.8 0
v -7.36 -8.8 0
v -7.52 -8.96 0
v -7.68 -8.96 0
v -7.68 -8.8 0
v -7.52 -8.8 0
v -7.68 -8.96 0
v -7.84 -8.96 0
v -7.84 -8.8 0
v -7.68 -8.8 0
v -7.84 -8.96 0
v -8 -8.96 0
v -8 -8.8 0
v -7.84 -8.8 0
v -8 -8.96 0
v -8.16 -8.96 0
v -8.16 -8.8 0
v -8 -8.8 0
v -8.16 -8.96 0
v -8.32 -8.96 0
v -8.32 -8.8 0
v -8.16 -8.8 0
v -8.32 -8.96 0
v -8.48 -8.96 0
v -8.48 -8.8 0
v -8.32 -8.8 0
v -8.48 -8.96 0
v -8.639999 -8.96 0
v -8.639999 -8.8 0
v -8.48 -8.8 0
v -8.639999 -8.96 0
v -8.8 -8.96 0
v -8.8 -8.8 0
v -8.639999 -8.8 0
v -8.8 -8.96 0
v -8.96 -8.96 0
v -8.96 -8.8 0
v -8.8 -8.8 0
v -8.96 -8.96 0
v -9.12 -8.96 0
v -9.12 -8.8 0
v -8.96 -8.8 0
v -9.12 -8.96 0
v -9.28 -8.96 0
v -9.28 -8.8 0
v -9.12 -8.8 0
v -9.28 -8.96 0
v -9.44 -8.96 0
v -9.44 -8.8 0
v -9.28 -8.8 0
v -9.44 -8.96 0
v -9.599999 -8.96 0
v -9.599999 -8.8 0
v -9.44 -8.8 0
v -9.599999 -8.96 0
v -9.76 -8.96 0
v -9.76 -8.8 0
v -9.599999 -8.8 0
v -9.76 -8.96 0
v -9.92 -8.96 0
v -9.92 -8.8 0
v -9.76 -8.8 0
v -9.92 -8.96 0
v -10.08 -8.96 0
v -10.08 -8.8 0
v -9.92 -8.8 0
v -0.8 -9.12 0
v -0.96 -9.12 0
v -0.96 -8.96 0
v -0.8 -8.96 0
v -4.16 -9.12 0
v -4.32 -9.12 0
v -4.32 -8.96 0
v -4.16 -8.96 0
v -6.56 -9.12 0
v -6.72 -9.12 0
v -6.72 -8.96 0
v -6.56 -8.96 0
v -9.92 -9.12 0
v -10.08 -9.12 0
v -10.08 -8.96 0
v -9.92 -8.96 0
v -0.8 -9.28 0
v -0.96 -9.28 0
v -0.96 -9.12 0
v -0.8 -9.12 0
v -4.16 -9.28 0
v -4.32 -9.28 0
v -4.32 -9.12 0
v -4.16 -9.12 0
v -6.56 -9.28 0
v -6.72 -9.28 0
v -6.72 -9.12 0
v -6.56 -9.12 0
v -9.92 -9.28 0
v -10.08 -9.28 0
v -10.08 -9.12 0
v -9.92 -9.12 0
v -0.8 -9.44 0
v -0.96 -9.44 0
v -0.96 -9.28 0
v -0.8 -9.28 0
v -4.16 -9.44 0
v -4.32 -9.44 0
v -4.32 -9.28 0
v -4.16 -9.28 0
v -6.56 -9.44 0
v -6.72 -9.44 0
v -6.72 -9.28 0
v -6.56 -9.28 0
v -9.92 -9.44 0
v -10.08 -9.44 0
v -10.08 -9.28 0
v -9.92 -9.28 0
v -0.8 -9.599999 0
v -0.96 -9.599999 0
v -0.96 -9.44 0
v -0.8 -9.44 0
v -4.16 -9.599999 0
v -4.32 -9.599999 0
v -4.32 -9.44 0
v -4.16 -9.44 0
v -6.56 -9.599999 0
v -6.72 -9.599999 0
v -6.72 -9.44 0
v -6.56 -9.44 0
v -9.92 -9.599999 0
v -10.08 -9.599999 0
v -10.08 -9.44 0
v -9.92 -9.44 0
v -0.8 -9.76 0
v -0.96 -9.76 0
v -0.96 -9.599999 0
v -0.8 -9.599999 0
v -0.96 -9.76 0
v -1.12 -9.76 0
v -1.12 -9.599999 0
v -0.96 -9.599999 0
v -1.12 -9.76 0
v -1.28 -9.76 0
v -1.28 -9.599999 0
v -1.12 -9.599999 0
v -1.28 -9.76 0
v -1.44 -9.76 0
v -1.44 -9.599999 0
v -1.28 -9.599999 0
v -1.44 -9.76 0
v -1.6 -9.76 0
v -1.6 -9.599999 0
v -1.44 -9.599999 0
v -1.6 -9.76 0
v -1.76 -9.76 0
v -1.76 -9.599999 0
v -1.6 -9.599999 0
v -1.76 -9.76 0
v -1.92 -9.76 0
v -1.92 -9.599999 0
v -1.76 -9.599999 0
v -1.92 -9.76 0
v -2.08 -9.76 0
v -2.08 -9.599999 0
v -1.92 -9.599999 0
v -2.08 -9.76 0
v -2.24 -9.76 0
v -2.24 -9.599999 0
v -2.08 -9.599999 0
v -2.24 -9.76 0
v -2.4 -9.76 0
v -2.4 -9.599999 0
v -2.24 -9.599999 0
v -2.4 -9.76 0
v -2.56 -9.76 0
v -2.56 -9.599999 0
v -2.4 -9.599999 0
v -2.56 -9.76 0
v -2.72 -9.76 0
v -2.72 -9.599999 0
v -2.56 -9.599999 0
v -2.72 -9.76 0
v -2.88 -9.76 0
v -2.88 -9.599999 0
v -2.72 -9.599999 0
v -2.88 -9.76 0
v -3.04 -9.76 0
v -3.04 -9.599999 0
v -2.88 -9.599999 0
v -3.04 -9.76 0
v -3.2 -9.76 0
v -3.2 -9.599999 0
v -3.04 -9.599999 0
v -3.2 -9.76 0
v -3.36 -9.76 0
v -3.36 -9.599999 0
v -3.2 -9.599999 0
v -3.36 -9.76 0
v -3.52 -9.76 0
v -3.52 -9.599999 0
v -3.36 -9.599999 0
v -3.52 -9.76 0
v -3.68 -9.76 0
v -3.68 -9.599999 0
v -3.52 -9.599999 0
v -3.68 -9.76 0
v -3.84 -9.76 0
v -3.84 -9.599999 0
v -3.68 -9.599999 0
v -3.84 -9.76 0
v -4 -9.76 0
v -4 -9.599999 0
v -3.84 -9.599999 0
v -4 -9.76 0
v -4.16 -9.76 0
v -4.16 -9.599999 0
v -4 -9.599999 0
v -4.16 -9.76 0
v -4.32 -9.76 0
v -4.32 -9.599999 0
v -4.16 -9.599999 0
v -6.56 -9.76 0
v -6.72 -9.76 0
v -6.72 -9.599999 0
v -6.56 -9.599999 0
v -6.72 -9.76 0
v -6.88 -9.76 0
v -6.88 -9.599999 0
v -6.72 -9.599999 0
v -6.88 -9.76 0
v -7.04 -9.76 0
v -7.04 -9.599999 0
v -6.88 -9.599999 0
v -7.04 -9.76 0
v -7.2 -9.76 0
v -7.2 -9.599999 0
v -7.04 -9.599999 0
v -7.2 -9.76 0
v -7.36 -9.76 0
v -7.36 -9.599999 0
v -7.2 -9.599999 0
v -7.36 -9.76 0
v -7.52 -9.76 0
v -7.52 -9.599999 0
v -7.36 -9.599999 0
v -7.52 -9.76 0
v -7.68 -9.76 0
v -7.68 -9.599999 0
v -7.52 -9.599999 0
v -7.68 -9.76 0
v -7.84 -9.76 0
v -7.84 -9.599999 0
v -7.68 -9.599999 0
v -7.84 -9.76 0
v -8 -9.76 0
v -8 -9.599999 0
v -7.84 -9.599999 0
v -8 -9.76 0
v -8.16 -9.76 0
v -8.16 -9.599999 0
v -8 -9.599999 0
v -8.16 -9.76 0
v -8.32 -9.76 0
v -8.32 -9.599999 0
v -8.16 -9.599999 0
v -8.32 -9.76 0
v -8.48 -9.76 0
v -8.48 -9.599999 0
v -8.32 -9.599999 0
v -8.48 -9.76 0
v -8.639999 -9.76 0
v -8.639999 -9.599999 0
v -8.48 -9.599999 0
v -8.639999 -9.76 0
v -8.8 -9.76 0
v -8.8 -9.599999 0
v -8.639999 -9.599999 0
v -8.8 -9.76 0
v -8.96 -9.76 0
v -8.96 -9.599999 0
v -8.8 -9.599999 0
v -8.96 -9.76 0
v -9.12 -9.76 0
v -9.12 -9.599999 0
v -8.96 -9.599999 0
v -9.12 -9.76 0
v -9.28 -9.76 0
v -9.28 -9.599999 0
v -9.12 -9.599999 0
v -9.28 -9.76 0
v -9.44 -9.76 0
v -9.44 -9.599999 0
v -9.28 -9.599999 0
v -9.44 -9.76 0
v -9.599999 -9.76 0
v -9.599999 -9.599999 0
v -9.44 -9.599999 0
v -9.599999 -9.76 0
v -9.76 -9.76 0
v -9.76 -9.599999 0
v -9.599999 -9.599999 0
v -9.76 -9.76 0
v -9.92 -9.76 0
v -9.92 -9.599999 0
v -9.76 -9.599999 0
v -9.92 -9.76 0
v -10.08 -9.76 0
v -10.08 -9.599999 0
v -9.92 -9.599999 0

# Texture cooridinates (Count = 40)
vt 0.6714286 0.8032787
vt 0.6857143 0.8032787
vt 0.6857143 0.8196721
vt 0.6714286 0.8196721
vt 0.7 0.8032787
vt 0.7 0.8196721
vt 0.7142857 0.8032787
vt 0.7142857 0.8196721
vt 0.7285714 0.8032787
vt 0.7285714 0.8196721
vt 0.7428572 0.8032787
vt 0.7428572 0.8196721
vt 0.7571428 0.8032787
vt 0.7571428 0.8196721
vt 0.6714286 0.7868853
vt 0.6857143 0.7868853
vt 0.7428572 0.7868853
vt 0.7571428 0.7868853
vt 0.6714286 0.7704918
vt 0.6857143 0.7704918
vt 0.7428572 0.7704918
vt 0.7571428 0.7704918
vt 0.6714286 0.7540984
vt 0.6857143 0.7540984
vt 0.7428572 0.7540984
vt 0.7571428 0.7540984
vt 0.6714286 0.7377049
vt 0.6857143 0.7377049
vt 0.7428572 0.7377049
vt 0.7571428 0.7377049
vt 0.6714286 0.7213115
vt 0.6857143 0.7213115
vt 0.7 0.7213115
vt 0.7 0.7377049
vt 0.7142857 0.7213115
vt 0.7142857 0.7377049
vt 0.7285714 0.7213115
vt 0.7285714 0.7377049
vt 0.7428572 0.7213115
vt 0.7571428 0.7213115

# Normal
vn 0 0 -1

# Mesh description
g 101_mesh_0004

# Faces
f 1/1/1 2/2/1 3/3/1 4/4/1
f 5/2/1 6/5/1 7/6/1 8/3/1
f 9/5/1 10/7/1 11/8/1 12/6/1
f 13/7/1 14/9/1 15/10/1 16/8/1
f 17/2/1 18/5/1 19/6/1 20/3/1
f 21/5/1 22/7/1 23/8/1 24/6/1
f 25/7/1 26/9/1 27/10/1 28/8/1
f 29/2/1 30/5/1 31/6/1 32/3/1
f 33/5/1 34/7/1 35/8/1 36/6/1
f 37/7/1 38/9/1 39/10/1 40/8/1
f 41/2/1 42/5/1 43/6/1 44/3/1
f 45/5/1 46/7/1 47/8/1 48/6/1
f 49/7/1 50/9/1 51/10/1 52/8/1
f 53/2/1 54/5/1 55/6/1 56/3/1
f 57/5/1 58/7/1 59/8/1 60/6/1
f 61/7/1 62/9/1 63/10/1 64/8/1
f 65/2/1 66/5/1 67/6/1 68/3/1
f 69/2/1 70/5/1 71/6/1 72/3/1
f 73/5/1 74/7/1 75/8/1 76/6/1
f 77/7/1 78/9/1 79/10/1 80/8/1
f 81/9/1 82/11/1 83/12/1 84/10/1
f 85/11/1 86/13/1 87/14/1 88/12/1
f 89/1/1 90/2/1 91/3/1 92/4/1
f 93/2/1 94/5/1 95/6/1 96/3/1
f 97/5/1 98/7/1 99/8/1 100/6/1
f 101/7/1 102/9/1 103/10/1 104/8/1
f 105/9/1 106/11/1 107/12/1 108/10/1
f 109/2/1 110/5/1 111/6/1 112/3/1
f 113/5/1 114/7/1 115/8/1 116/6/1
f 117/7/1 118/9/1 119/10/1 120/8/1
f 121/2/1 122/5/1 123/6/1 124/3/1
f 125/5/1 126/7/1 127/8/1 128/6/1
f 129/7/1 130/9/1 131/10/1 132/8/1
f 133/2/1 134/5/1 135/6/1 136/3/1
f 137/5/1 138/7/1 139/8/1 140/6/1
f 141/7/1 142/9/1 143/10/1 144/8/1
f 145/2/1 146/5/1 147/6/1 148/3/1
f 149/5/1 150/7/1 151/8/1 152/6/1
f 153/7/1 154/9/1 155/10/1 156/8/1
f 157/2/1 158/5/1 159/6/1 160/3/1
f 161/5/1 162/7/1 163/8/1 164/6/1
f 165/7/1 166/9/1 167/10/1 168/8/1
f 169/9/1 170/11/1 171/12/1 172/10/1
f 173/11/1 174/13/1 175/14/1 176/12/1
f 177/15/1 178/16/1 179/2/1 180/1/1
f 181/17/1 182/18/1 183/13/1 184/11/1
f 185/15/1 186/16/1 187/2/1 188/1/1
f 189/17/1 190/18/1 191/13/1 192/11/1
f 193/19/1 194/20/1 195/16/1 196/15/1
f 197/21/1 198/22/1 199/18/1 200/17/1
f 201/19/1 202/20/1 203/16/1 204/15/1
f 205/21/1 206/22/1 207/18/1 208/17/1
f 209/23/1 210/24/1 211/20/1 212/19/1
f 213/25/1 214/26/1 215/22/1 216/21/1
f 217/23/1 218/24/1 219/20/1 220/19/1
f 221/25/1 222/26/1 223/22/1 224/21/1
f 225/27/1 226/28/1 227/24/1 228/23/1
f 229/29/1 230/30/1 231/26/1 232/25/1
f 233/27/1 234/28/1 235/24/1 236/23/1
f 237/29/1 238/30/1 239/26/1 240/25/1
f 241/31/1 242/32/1 243/28/1 244/27/1
f 245/32/1 246/33/1 247/34/1 248/28/1
f 249/33/1 250/35/1 251/36/1 252/34/1
f 253/35/1 254/37/1 255/38/1 256/36/1
f 257/32/1 258/33/1 259/34/1 260/28/1
f 261/33/1 262/35/1 263/36/1 264/34/1
f 265/35/1 266/37/1 267/38/1 268/36/1
f 269/32/1 270/33/1 271/34/1 272/28/1
f 273/33/1 274/35/1 275/36/1 276/34/1
f 277/35/1 278/37/1 279/38/1 280/36/1
f 281/32/1 282/33/1 283/34/1 284/28/1
f 285/33/1 286/35/1 287/36/1 288/34/1
f 289/35/1 290/37/1 291/38/1 292/36/1
f 293/32/1 294/33/1 295/34/1 296/28/1
f 297/33/1 298/35/1 299/36/1 300/34/1
f 301/35/1 302/37/1 303/38/1 304/36/1
f 305/32/1 306/33/1 307/34/1 308/28/1
f 309/33/1 310/35/1 311/36/1 312/34/1
f 313/35/1 314/37/1 315/38/1 316/36/1
f 317/35/1 318/37/1 319/38/1 320/36/1
f 321/37/1 322/39/1 323/29/1 324/38/1
f 325/39/1 326/40/1 327/30/1 328/29/1
f 329/31/1 330/32/1 331/28/1 332/27/1
f 333/32/1 334/33/1 335/34/1 336/28/1
f 337/33/1 338/35/1 339/36/1 340/34/1
f 341/35/1 342/37/1 343/38/1 344/36/1
f 345/32/1 346/33/1 347/34/1 348/28/1
f 349/33/1 350/35/1 351/36/1 352/34/1
f 353/35/1 354/37/1 355/38/1 356/36/1
f 357/32/1 358/33/1 359/34/1 360/28/1
f 361/33/1 362/35/1 363/36/1 364/34/1
f 365/35/1 366/37/1 367/38/1 368/36/1
f 369/32/1 370/33/1 371/34/1 372/28/1
f 373/33/1 374/35/1 375/36/1 376/34/1
f 377/35/1 378/37/1 379/38/1 380/36/1
f 381/32/1 382/33/1 383/34/1 384/28/1
f 385/33/1 386/35/1 387/36/1 388/34/1
f 389/35/1 390/37/1 391/38/1 392/36/1
f 393/32/1 394/33/1 395/34/1 396/28/1
f 397/33/1 398/35/1 399/36/1 400/34/1
f 401/35/1 402/37/1 403/38/1 404/36/1
f 405/35/1 406/37/1 407/38/1 408/36/1
f 409/37/1 410/39/1 411/29/1 412/38/1
f 413/39/1 414/40/1 415/30/1 416/29/1

